<?xml version="1.0" encoding="UTF-8"?>
<!--Generator: Apple Native CoreSVG 175.5-->
<!DOCTYPE svg
PUBLIC "-//W3C//DTD SVG 1.1//EN"
       "http://www.w3.org/Graphics/SVG/1.1/DTD/svg11.dtd">
<svg version="1.1" xmlns="http://www.w3.org/2000/svg" xmlns:xlink="http://www.w3.org/1999/xlink" width="35.8594" height="35.877">
 <g>
  <rect height="35.877" opacity="0" width="35.8594" x="0" y="0"/>
  <path d="M17.9297 35.8594C27.7383 35.8594 35.8594 27.7207 35.8594 17.9297C35.8594 8.12109 27.7207 0 17.9121 0C8.12109 0 0 8.12109 0 17.9297C0 27.7207 8.13867 35.8594 17.9297 35.8594ZM9.35156 17.9473C9.35156 17.0332 9.98438 16.4004 10.8984 16.4004L16.4004 16.4004L16.4004 10.8984C16.4004 9.98438 17.0156 9.33398 17.9121 9.33398C18.8262 9.33398 19.459 9.98438 19.459 10.8984L19.459 16.4004L24.9785 16.4004C25.875 16.4004 26.5254 17.0332 26.5254 17.9473C26.5254 18.8438 25.875 19.4414 24.9785 19.4414L19.459 19.4414L19.459 24.9609C19.459 25.875 18.8262 26.5078 17.9121 26.5078C17.0156 26.5078 16.4004 25.8574 16.4004 24.9609L16.4004 19.4414L10.8984 19.4414C9.98438 19.4414 9.35156 18.8438 9.35156 17.9473Z" fill="#ffffff" fill-opacity="0.85"/>
 </g>
</svg>
