<?xml version="1.0" encoding="UTF-8"?>
<!--Generator: Apple Native CoreSVG 175.5-->
<!DOCTYPE svg
PUBLIC "-//W3C//DTD SVG 1.1//EN"
       "http://www.w3.org/Graphics/SVG/1.1/DTD/svg11.dtd">
<svg version="1.1" xmlns="http://www.w3.org/2000/svg" xmlns:xlink="http://www.w3.org/1999/xlink" width="35.8594" height="35.877">
 <g>
  <rect height="35.877" opacity="0" width="35.8594" x="0" y="0"/>
  <path d="M17.9297 35.8594C27.7383 35.8594 35.8594 27.7207 35.8594 17.9297C35.8594 8.12109 27.7207 0 17.9121 0C8.12109 0 0 8.12109 0 17.9297C0 27.7207 8.13867 35.8594 17.9297 35.8594ZM10.8457 19.4766C9.80859 19.4766 9.10547 18.9316 9.10547 17.9648C9.10547 16.9805 9.77344 16.418 10.8457 16.418L25.0488 16.418C26.1035 16.418 26.7539 16.9805 26.7539 17.9648C26.7539 18.9316 26.0684 19.4766 25.0488 19.4766Z" fill="#ffffff" fill-opacity="0.85"/>
 </g>
</svg>
